<svg preserveAspectRatio="none" viewBox="0 0 100 111" fill="none" xmlns="http://www.w3.org/2000/svg"><path fill-rule="evenodd" clip-rule="evenodd" d="M34.2335 39.6872C33.9535 40.0843 33.6718 40.5097 33.3905 40.9578C32.4218 42.5009 31.4579 44.3132 30.5818 46.1667C30.0607 47.2692 29.9214 49.3429 29.9214 49.3429C29.9214 49.3429 28.8546 50.1519 28.7253 50.4863C28.0882 52.1332 27.582 53.6626 27.2726 54.8934C26.9964 55.992 26.8769 56.8527 26.9611 57.3468C27.1354 58.3701 29.7915 61.7646 29.7915 61.7646H31.2594V63.445L33.2977 65.6048C33.7504 65.7524 36.2891 66.4618 37.5831 66.6212C40.0013 66.919 41.7387 68.9079 41.7387 68.9079C41.7387 68.9079 42.6647 72.2729 43.1671 74.1169C43.7035 76.0853 43.8305 78.8051 44.2331 79.1986C44.6139 79.5707 46.2946 79.7915 47.9151 79.9201C48.7667 77.9704 51.0886 74.6251 51.0886 74.6251L51.2456 74.6251C51.2456 74.6251 53.5676 77.9704 54.4192 79.9201C56.0396 79.7915 57.7203 79.5707 58.1011 79.1986C58.5038 78.8051 59.0447 76.8199 59.5811 74.8515C60.0835 73.0075 60.5819 71.1783 60.9588 70.6867C61.4664 70.0246 64.5084 69.65 66.9266 69.3522C68.2206 69.1928 69.3359 69.0555 69.7886 68.9079C69.7886 68.9079 71.1838 66.4172 72.5823 63.6991C72.7772 63.3203 72.391 62.9372 72.5823 62.5557C72.8411 62.0393 73.6743 61.5261 73.9103 61.0311C74.663 59.4523 75.2517 58.0599 75.3732 57.3468C75.7627 55.0599 71.7908 44.9195 68.1007 39.6872C66.622 38.8159 65.5814 38.293 63.1657 37.6546C62.4932 37.4769 61.9109 38.4429 61.2178 38.2898C60.8301 38.2042 59.1662 36.7252 58.7775 36.648C56.0002 36.0964 53.2488 35.7662 51.2456 35.7495V35.7489C51.2196 35.7489 51.1934 35.7489 51.1671 35.749C51.1408 35.7489 51.1147 35.7489 51.0887 35.7489V35.7495C46.5035 35.7876 37.9994 37.4683 34.2335 39.6872ZM51.1671 54.8934C50.9459 54.9386 50.7292 55.0032 50.5692 55.0601L50.1796 55.314L49.2706 57.855L47.4525 61.0311C47.7123 61.4546 48.3096 62.4541 48.6213 63.0639C48.848 63.5074 51.0887 61.9042 51.0887 61.9042H51.2456C51.2456 61.9042 53.4863 63.5074 53.713 63.0639C54.0247 62.4541 54.622 61.4546 54.8817 61.0311L54.2053 59.8494V58.9893H53.713L53.0637 57.855L52.1547 55.314L51.7651 55.0601C51.6051 55.0032 51.3883 54.9386 51.1671 54.8934ZM38.4922 49.47C37.5831 49.0889 34.4665 52.6462 34.2068 53.7896C34.2068 54.552 36.9338 56.9656 37.5831 56.9656H39.7908L40.5699 57.855H43.5567C44.4657 56.7539 46.2838 54.3993 46.2838 53.7896C46.2838 53.0275 39.4012 49.8512 38.4922 49.47ZM63.8421 49.47C64.7511 49.0889 67.3212 52.392 67.5809 53.5354C67.5809 54.2978 65.7629 56.2034 65.1136 56.2034L63.8421 57.855H61.7643H58.7775C57.8685 56.7539 56.6726 55.0344 56.6726 54.4247C56.6726 54.1242 57.6457 53.3498 58.8803 52.4985C59.0903 52.3537 60.1789 50.9945 60.1789 50.9945L60.8282 51.2205C60.8282 51.2205 63.4696 49.6262 63.8421 49.47Z" fill="#57D08B"/><path opacity="0.8" d="M30.7068 91.5822C30.1756 92.0437 29.6512 92.5052 29.12 92.9667C28.237 93.738 27.5532 94.6083 27.0752 95.5642L33.9466 99.3089L37.379 100.529L39.2977 99.7308L41.3093 101.003L52.5825 101.808L62.8465 100.805L66.1792 99.2891L67.8191 99.3155L69.5386 98.4057C69.6581 98.2145 69.7843 98.0299 69.917 97.8387C70.9461 96.3883 71.9021 94.8786 72.8316 93.4084C73.0772 93.026 73.3229 92.6304 73.5752 92.2349L69.3262 94.2523L66.956 95.3928L59.7261 95.8543L53.7775 97.0739H47.311L36.6952 94.8061L33.7674 92.5975L30.7001 91.5888L30.7068 91.5822Z" fill="#57D08B"/><path d="M13.0734 42.8298L12.9407 43.3967L13.0203 42.9089L13.0801 42.8364L13.0734 42.8298ZM15.4768 32.11L14.6403 32.71L12.4892 38.3665L9.99956 41.6365L8.10742 53.4902V60.7092L9.48171 67.3547L11.3008 75.4769L12.5888 78.1206L14.7066 80.962C15.1382 81.0675 15.5697 81.1664 15.9946 81.2653C16.3863 81.3576 16.7714 81.4037 17.1498 81.4037C18.0594 81.4037 18.9092 81.14 19.6992 80.6258L18.5905 79.1161L15.3108 74.1452L14.6203 71.574L13.3589 63.3793L12.9075 54.6241L14.7332 46.825L15.895 44.6955L16.5921 41.7815L18.4577 37.9116L19.9515 35.5712C19.8918 35.5053 19.832 35.4393 19.7789 35.3734C18.4975 33.9428 16.9905 32.8945 15.4701 32.11H15.4768Z" fill="#57D08B"/><path opacity="0.8" d="M55.9625 15.0604L46.0902 15.5614L36.8487 16.9723L33.954 17.7436L29.5391 20.2686C29.5789 20.3148 29.6187 20.3675 29.6519 20.4136L30.0436 20.9015C30.9797 22.0816 31.9623 23.3078 32.9582 24.5605L36.7159 22.8793L40.3275 21.2246L51.8197 19.6159L63.6705 21.2246L66.9701 22.8793L68.1917 24.2176L71.1925 25.9911L71.8166 26.3009C72.2614 25.7669 72.6863 25.2461 73.1046 24.7385C73.6224 24.099 74.1137 23.4397 74.5851 22.7607L71.4382 21.6795L69.0348 20.651L67.2356 18.3435L64.7393 17.915L55.9692 15.0735L55.9625 15.0604Z" fill="#57D08B"/><path opacity="0.8" d="M86.7382 33.1247C85.4104 33.4807 84.2353 34.2125 83.1797 35.353L87.2694 42.0578L88.3582 44.1081L88.3382 45.5585L89.6926 48.5187L90.5889 57.6232L89.281 67.031L86.9772 70.0768L88.2055 70.5317L87.7673 73.5578L87.1233 74.7247C87.4088 74.9818 87.7009 75.2323 87.9797 75.4894C88.8495 76.274 89.7922 76.9069 90.8345 77.4145L91.1798 75.4169L93.052 71.7316L95.4553 58.5L93.6428 45.6706L91.7706 41.6359L88.0196 34.6476L86.7382 33.1313V33.1247Z" fill="#57D08B"/><path d="M25.0434 35.6429C23.9414 34.1002 23.8019 33.9156 23.7289 33.8233C23.3837 33.4277 23.0451 33.0388 22.6932 32.6498C19.4932 29.0765 15.4235 27.4811 12.2367 26.4988C9.92631 25.7802 7.55617 24.9759 5.26569 24.1913L5.19266 24.165C4.26319 23.8485 3.34037 23.5321 2.4109 23.2222C2.16525 23.1365 1.91961 23.0442 1.66732 22.9519L1.60093 22.9255C1.34201 22.8266 1.06317 22.7278 0.77769 22.6223C0.286399 20.7829 -0.0189986 19.2204 0.0009186 17.7239C0.0208358 16.6559 0.180173 15.7065 0.48557 14.8297C1.08308 14.7242 2.43081 14.4869 2.43081 14.4869C3.57273 14.2891 4.70801 14.0913 5.84329 13.8737C8.45908 13.3727 10.7695 11.3883 11.8848 8.69186C12.8342 6.38442 12.7546 3.92533 11.6724 1.85522C11.6989 1.73655 11.7985 1.36077 11.7985 1.36077C11.8981 0.958613 12.0176 0.543272 12.1438 0.114746C13.2525 0.141117 14.3015 0.174079 15.2708 0.286156C16.7778 0.464159 18.1587 1.07728 19.3803 2.10575L19.6724 2.34968C20.1505 2.75183 20.6019 3.13421 21.0003 3.5034C21.06 4.35386 21.0998 5.21751 21.1463 6.11411C21.2127 7.39969 21.2791 8.70505 21.3853 10.0368C21.5247 11.7179 21.7438 13.7089 22.2683 15.7065C23.0849 18.7919 24.8908 21.0466 26.3447 22.8596L26.7298 23.3409C28.7082 25.8263 30.8261 28.4898 33.0302 31.2455C32.2933 31.5752 31.6759 31.8521 31.2576 32.0235L26.9289 33.8101L27.002 34.4364L26.3314 34.8979C26.0858 35.0693 25.7671 35.2407 25.3953 35.4451C25.2758 35.511 25.1563 35.577 25.0302 35.6429H25.0434Z" fill="#57D08B"/><path d="M19.6467 107.709C19.0824 107.689 18.4782 107.129 17.8342 106.529C17.6085 106.324 17.3828 106.107 17.1438 105.909C17.177 105.566 17.2566 104.709 17.2566 104.709C17.3695 103.496 17.4757 102.303 17.5687 101.11C17.7479 98.7495 16.8915 96.3695 15.2184 94.5763C13.4857 92.7237 11.069 91.6557 8.58603 91.6557C7.72295 91.6557 6.87315 91.781 6.05654 92.0381C5.40592 92.2359 4.85487 92.5062 4.31711 92.7699C3.38764 93.2182 2.58432 93.6071 1.34945 93.6269C1.11709 93.4489 0.778492 92.7765 0.665628 92.5457L0.632434 92.4732C0.380149 91.9721 0.187617 91.2074 0.632434 89.3483C0.678907 89.1571 0.732019 88.9659 0.785132 88.7813L0.805048 88.7022C0.8648 88.4912 0.924553 88.2802 0.977665 88.0693C1.82746 87.4298 2.67063 86.7903 3.50715 86.1508C4.13122 85.6761 4.60259 85.0498 5.02085 84.4894C5.71131 83.5664 6.09638 83.1313 6.59431 83.1313C6.6607 83.1313 6.72709 83.1313 6.79348 83.1511H6.82668L6.87979 83.1709C9.59516 83.9488 12.3437 84.6081 14.9197 85.2146C15.6168 85.3794 16.3205 85.4585 17.0176 85.4585C18.7571 85.4585 21.3131 84.9377 23.65 82.472C24.2343 81.8589 24.8119 81.2392 25.3828 80.6195C26.4318 79.4921 27.3414 78.523 28.2576 77.5869C30.2692 78.5692 32.1281 79.0438 33.9207 79.0438C34.0136 79.0438 34.1066 79.0438 34.1995 79.0438C34.2991 80.1712 34.4983 81.3117 34.797 82.4984L34.8236 82.5973L33.3763 83.8565C31.026 85.8937 28.6692 87.9374 26.3256 89.9877C23.0857 92.8226 21.6318 96.6464 22.1231 101.044C22.1363 101.143 22.1496 101.235 22.1629 101.321L22.2558 102.751C22.3156 103.687 22.3754 104.643 22.4285 105.593C22.1363 105.843 21.8509 106.114 21.572 106.384C20.9148 107.017 20.1645 107.735 19.66 107.735H19.6401L19.6467 107.709Z" fill="#57D08B"/><path d="M83.1026 110.095C81.8744 109.31 80.374 108.684 78.9267 108.084C76.4901 107.069 75.3283 106.179 74.8569 104.603C74.6644 103.937 74.6312 103.7 74.5913 103.423C74.5781 103.337 74.5648 103.245 74.5515 103.146C74.359 101.953 74.7175 101.188 75.8129 99.6389C76.8022 98.2479 76.842 97.259 77.7051 95.8943C78.2229 95.0768 78.5615 93.1056 79.0661 92.3474C80.4603 90.2377 80.0354 88.3061 78.535 86.3085C77.9972 85.5965 77.4594 84.891 76.915 84.1856L76.8553 84.1131C75.6735 82.577 74.5449 81.1134 73.5225 79.6103L80.0885 75.358C81.9076 76.8281 83.6736 78.3313 85.34 79.841C87.6437 81.9177 90.3658 83.1506 93.9044 83.7175C94.794 83.856 95.7235 84.0538 96.6198 84.2384C97.4496 84.4098 98.3061 84.5878 99.1891 84.7394C99.4878 86.7963 99.7268 88.7412 99.5077 90.4817C99.2023 92.9341 98.7974 94.8197 98.233 96.4085C98.1534 96.6392 97.9277 96.9821 97.7019 97.2853C96.8256 97.1601 95.9359 97.1007 95.0397 97.1007C94.3492 97.1007 93.6388 97.1403 92.9218 97.2128C92.0189 97.3051 91.1956 97.4897 90.5317 97.6347L90.4189 97.6611C90.1799 97.7139 89.9409 97.7666 89.6952 97.8128C88.613 98.0105 85.008 99.0192 84.1782 103.562C83.9989 104.544 83.8396 105.526 83.6802 106.515C83.6802 106.515 83.1889 109.528 83.096 110.115H83.0827L83.1026 110.095Z" fill="#57D08B"/><path d="M71.7625 32.4859C73.4422 30.5279 74.8762 28.8336 76.1974 27.2117C78.1825 24.779 79.7028 22.1815 81.17 19.6631C81.7144 18.7335 82.2588 17.7973 82.8232 16.8876C84.3302 14.4482 83.6066 11.4683 82.1194 9.78061L81.9734 9.61579C80.931 8.4357 79.8621 7.22263 78.6671 6.04254C78.2754 5.65357 78.2754 5.48216 78.2821 5.24482C78.2887 4.82289 78.302 4.39436 78.3152 3.97243C79.0522 3.60983 79.7825 3.24064 80.4929 2.87804L81.1435 2.5484C82.8099 4.33503 84.4697 6.12825 86.1294 7.92146L86.78 8.62029L87.6498 8.23132C87.6498 8.23132 88.0083 8.08628 88.4 8.08628C88.7386 8.08628 88.8846 8.19836 88.9311 8.23791C89.6946 8.83126 90.5444 10.4794 90.4514 11.554C90.3917 12.2727 89.5618 13.6373 89.1236 14.3625C88.6124 15.2064 88.3801 15.5888 88.473 16.1624L88.4863 16.2283L88.8514 19.2477L91.0556 21.5684L91.4008 21.6673C92.2042 21.9046 92.6091 22.1881 93.034 22.4848C93.6515 22.9133 94.3486 23.4012 95.7361 23.4605H95.8357C96.3668 23.4869 96.898 23.5132 97.4291 23.5528C97.4291 23.5528 99.215 23.6912 99.8192 23.7374C99.6996 24.4362 99.5669 25.1746 99.4275 25.8998L99.0158 26.1767C97.3295 27.2975 95.7494 28.3523 94.2092 28.8401C93.5187 29.0577 92.8747 29.1698 92.2971 29.1698C92.0116 29.1698 91.7394 29.1434 91.4739 29.0907C90.478 28.8929 89.5485 28.794 88.6323 28.794C85.3195 28.794 82.4647 30.073 80.141 32.5848C79.1982 33.6067 78.2489 34.622 77.2995 35.6438L71.7559 32.4859H71.7625Z" fill="#57D08B"/></svg>