<svg preserveAspectRatio="none" viewBox="0 0 100 112" fill="none" xmlns="http://www.w3.org/2000/svg"><path fill-rule="evenodd" clip-rule="evenodd" d="M25.0746 36.3469L25.071 36.3418C25.1931 36.2774 25.3091 36.213 25.4251 36.1485L25.5203 36.0959C25.8499 35.9137 26.134 35.7567 26.3574 35.5997L27.0253 35.1368L26.9526 34.5086L31.2641 32.7165C31.6626 32.5521 32.2425 32.2908 32.9345 31.9791L32.935 31.9789L32.9356 31.9786L32.936 31.9784L32.9365 31.9782L32.9367 31.9781L32.9368 31.9781L32.9378 31.9776L32.9378 31.9776L33.0297 31.9362C31.1648 29.5882 29.3619 27.307 27.6534 25.1453L27.6504 25.1415L27.6494 25.1401L27.6474 25.1377L27.6452 25.1348L27.6422 25.131L27.6419 25.1307L26.7542 24.0075L26.3707 23.5248C24.9225 21.7063 23.1238 19.4447 22.3104 16.35C21.788 14.3463 21.5698 12.3493 21.431 10.663C21.3279 9.36182 21.2625 8.08574 21.198 6.82865V6.8286L21.198 6.82854L21.198 6.82848L21.198 6.82842L21.198 6.82835L21.198 6.82828L21.1929 6.72842C21.1839 6.55363 21.1751 6.3801 21.1665 6.20767L21.1664 6.20737V6.20732C21.1304 5.49264 21.0953 4.79691 21.0474 4.10977C20.6506 3.73945 20.201 3.35591 19.7249 2.95254L19.4339 2.70787C18.2172 1.67628 16.8417 1.06129 15.3406 0.882746C14.3751 0.770329 13.3303 0.737266 12.226 0.710815C12.1004 1.14064 11.9813 1.55725 11.8821 1.96062C11.8821 1.96062 11.7829 2.33755 11.7565 2.45658C12.8344 4.53298 12.9137 6.99954 11.9681 9.314C10.8572 12.0186 8.55593 14.0091 5.9505 14.5116C4.81972 14.7298 3.68894 14.9282 2.55155 15.1266C2.55155 15.1266 1.20916 15.3647 0.614016 15.4705C0.30983 16.35 0.151124 17.3022 0.131286 18.3735C0.111448 19.8746 0.415636 21.4418 0.904979 23.2867C1.00883 23.3254 1.1118 23.3631 1.21324 23.4003C1.38955 23.465 1.56125 23.528 1.72496 23.5909L1.79109 23.6174C1.85885 23.6423 1.92614 23.6673 1.99307 23.6921L1.99367 23.6924L1.99398 23.6925L1.99416 23.6925C2.17505 23.7597 2.35338 23.8258 2.53171 23.8885C3.26882 24.136 4.00172 24.3876 4.73712 24.6401L4.73763 24.6403L5.30246 24.8341L5.3752 24.8606C7.65659 25.6475 10.0173 26.4542 12.3186 27.175C15.4927 28.1603 19.5463 29.7606 22.7337 33.3447C23.0623 33.7106 23.3793 34.0764 23.7011 34.4478L23.7653 34.5218C23.8379 34.6143 23.9766 34.7991 25.071 36.3418L25.0613 36.3469H25.0746ZM71.6094 33.1803C73.2824 31.2164 74.7107 29.5169 76.0267 27.8902C78.0039 25.45 79.5182 22.8446 80.9796 20.3186L81.14 20.0426L81.1403 20.0421C81.6292 19.2009 82.1196 18.357 82.6262 17.5346C84.1273 15.0879 83.4065 12.0989 81.9252 10.406L81.7798 10.2407L81.7294 10.1833C80.7071 9.01769 79.6577 7.82115 78.4866 6.65661C78.0965 6.26646 78.0965 6.09453 78.1031 5.85647C78.1097 5.43326 78.1229 5.00343 78.1361 4.58021C78.8701 4.21651 79.5975 3.8462 80.3051 3.4825L80.9532 3.15186C82.6111 4.94194 84.2625 6.73863 85.9139 8.53532L85.9158 8.53745L85.9193 8.54125L86.5674 9.2422L87.4337 8.85205C87.4337 8.85205 87.7907 8.70657 88.1809 8.70657C88.5182 8.70657 88.6636 8.81898 88.7099 8.85866C89.4704 9.45381 90.3168 11.107 90.2242 12.1849C90.1655 12.8958 89.3606 14.2371 88.9199 14.9716L88.9198 14.9717L88.9198 14.9718L88.9017 15.0019L88.8992 15.0061C88.3917 15.8496 88.1612 16.2328 88.2536 16.8072L88.2669 16.8733L88.6306 19.9019L90.826 22.2296L91.1699 22.3288C91.9682 22.5664 92.3716 22.85 92.7938 23.1468L92.7966 23.1488L92.8048 23.1545C93.4177 23.583 94.1121 24.0682 95.488 24.1275H95.5872C96.1162 24.1539 96.6452 24.1804 97.1742 24.2201C97.1742 24.2201 98.9531 24.3589 99.5548 24.4052C99.4358 25.1062 99.3035 25.8468 99.1647 26.5742L98.7547 26.8519L98.7115 26.8808C97.0481 27.9942 95.4881 29.0383 93.9671 29.5235C93.2793 29.7417 92.6379 29.8541 92.0626 29.8541C91.7782 29.8541 91.5071 29.8277 91.2426 29.7748C90.2507 29.5764 89.3249 29.4772 88.4124 29.4772C85.1126 29.4772 82.2691 30.7601 79.9546 33.2795C79.3207 33.9715 78.6837 34.6605 78.0458 35.3505L78.0457 35.3506L78.0456 35.3507L78.0455 35.3509L78.0453 35.351L78.0452 35.3511L78.0451 35.3512L78.045 35.3514L78.0449 35.3515L78.0448 35.3516L78.0447 35.3517L78.0445 35.3519C77.738 35.6835 77.4312 36.0153 77.1244 36.3479L71.6027 33.1803H71.6094ZM82.9036 111.025L82.9004 111.023C83.0011 110.386 83.4789 107.435 83.4789 107.435C83.6376 106.443 83.7963 105.457 83.9749 104.472C84.8015 99.9158 88.3922 98.9041 89.47 98.7057C89.7147 98.6594 89.9528 98.6065 90.1908 98.5536L90.3033 98.5271L90.3855 98.509C91.032 98.3666 91.8214 98.1927 92.6838 98.1039C93.398 98.0312 94.1056 97.9915 94.7933 97.9915C95.686 97.9915 96.5721 98.051 97.445 98.1767C97.6699 97.8725 97.8947 97.5286 97.974 97.2972C98.5361 95.7035 98.9395 93.8123 99.2437 91.3523C99.4619 89.6066 99.2239 87.6558 98.9263 85.5926C98.076 85.4456 97.2504 85.2738 96.4495 85.1072L96.3671 85.09L96.071 85.0285C95.2709 84.8619 94.451 84.6912 93.6625 84.5676C90.1379 83.9989 87.4267 82.7624 85.1321 80.6793C83.4723 79.165 81.7133 77.6573 79.9014 76.1827L73.3614 80.4479C74.3602 81.9266 75.4607 83.3672 76.6132 84.8756L76.681 84.9644L76.7405 85.0371C77.2828 85.7447 77.8184 86.4523 78.354 87.1664C79.8485 89.1701 80.2717 91.1076 78.883 93.2237C78.6306 93.6057 78.4199 94.2947 78.2072 94.9899C77.9966 95.6786 77.7841 96.3733 77.5274 96.7814C77.1317 97.4116 76.9097 97.9619 76.6892 98.5084C76.4308 99.149 76.1745 99.7845 75.6428 100.537C74.5517 102.091 74.1946 102.858 74.3864 104.055C74.3996 104.155 74.4128 104.247 74.426 104.333L74.4272 104.341C74.4664 104.616 74.5006 104.855 74.6906 105.517C75.1601 107.097 76.3173 107.99 78.7442 109.008C80.1845 109.61 81.6777 110.237 82.9004 111.023L82.8995 111.029L82.8838 111.045H82.897L82.8995 111.029L82.9036 111.025ZM17.8929 107.448C18.5343 108.05 19.1361 108.612 19.6981 108.632L19.6915 108.658H19.7114C20.2139 108.658 20.9612 107.938 21.6158 107.303C21.8936 107.032 22.1779 106.761 22.4689 106.509C22.416 105.557 22.3565 104.598 22.297 103.659L22.2044 102.224C22.1912 102.138 22.1779 102.046 22.1647 101.946C21.6754 97.5358 23.1235 93.7004 26.3506 90.8569C28.6849 88.8004 31.0324 86.7504 33.3733 84.7071L34.8149 83.444L34.7884 83.3448C34.4909 82.1545 34.2925 81.0105 34.1933 79.8798H33.9156C32.1301 79.8798 30.2785 79.4036 28.2749 78.4183C27.3623 79.3574 26.4564 80.3294 25.4116 81.4602C24.8429 82.0818 24.2676 82.7034 23.6856 83.3184C21.3579 85.7915 18.812 86.314 17.0795 86.314C16.3852 86.314 15.6842 86.2346 14.9899 86.0693C12.4241 85.4609 9.68645 84.7996 6.98183 84.0193L6.92893 83.9995H6.89587C6.82977 83.9797 6.76366 83.9797 6.69756 83.9797H6.69749C6.20153 83.9797 5.81799 84.4161 5.13027 85.3419C4.71366 85.904 4.24416 86.5322 3.62256 87.0083C2.78935 87.6497 1.94953 88.2912 1.1031 88.9326C1.05021 89.1442 0.990708 89.3557 0.931206 89.5673L0.931169 89.5674L0.911331 89.6468C0.858429 89.8319 0.805528 90.0237 0.759239 90.2155C0.316184 92.0803 0.507954 92.8474 0.759239 93.3499L0.792302 93.4227C0.904718 93.6541 1.24197 94.3286 1.47342 94.5071C2.70018 94.4874 3.49935 94.0992 4.42207 93.651L4.42212 93.651L4.42931 93.6475L4.43032 93.647L4.43049 93.6469C4.96575 93.3826 5.51428 93.1117 6.16185 92.9135C6.97522 92.6556 7.82165 92.5299 8.68131 92.5299C11.1545 92.5299 13.5615 93.6012 15.2874 95.4594C16.9539 97.2581 17.8069 99.6453 17.6284 102.013C17.5358 103.21 17.43 104.406 17.3176 105.623C17.3176 105.623 17.2382 106.483 17.2051 106.827C17.3738 106.967 17.5358 107.118 17.6958 107.266C17.7617 107.328 17.8273 107.389 17.8929 107.448ZM82.9818 36.0562C84.0332 34.9122 85.2037 34.1781 86.5262 33.821V33.8277L87.8025 35.3486L91.5387 42.3581L93.4035 46.4051L95.2088 59.2735L92.8149 72.5453L90.9501 76.2418L90.6063 78.2455C89.5681 77.7363 88.6291 77.1015 87.7628 76.3146C87.5977 76.1613 87.4279 76.0103 87.2576 75.8589L87.2575 75.8588L87.2574 75.8587L87.2573 75.8586L87.2571 75.8584L87.257 75.8583L87.2569 75.8582C87.141 75.7551 87.0248 75.6518 86.9098 75.5475L87.5512 74.377L87.9876 71.3418L86.7643 70.8855L89.0589 67.8304L90.3616 58.394L89.4689 49.2618L88.1199 46.2927L88.1397 44.8379L87.0552 42.7813L82.9818 36.0562ZM55.8704 15.7019L46.0373 16.2044L36.8323 17.6196L33.9492 18.3933L29.5517 20.9259C29.5914 20.9722 29.631 21.0251 29.6641 21.0714L30.0543 21.5608C30.5711 22.217 31.1023 22.8874 31.642 23.5686L31.6421 23.5688L31.6424 23.5692C32.0761 24.1166 32.5154 24.6711 32.9573 25.2308L36.7001 23.5446L40.2974 21.8848L51.7441 20.2713L63.5478 21.8848L66.8344 23.5446L68.0511 24.887L71.0401 26.6658L71.6617 26.9766C71.964 26.6111 72.2571 26.2517 72.5452 25.8985L72.5472 25.8961L72.5479 25.8952C72.681 25.7319 72.8131 25.57 72.9445 25.4094C73.4603 24.7679 73.9497 24.1067 74.4192 23.4256L71.2847 22.3411L68.8909 21.3095L67.0989 18.995L64.6125 18.5652L55.877 15.7151L55.8704 15.7019ZM13.1455 43.5762L13.0973 43.635L13.018 44.1243L13.1455 43.5762ZM15.5413 32.8053L15.544 32.8033H15.5374L15.5413 32.8053ZM14.7108 33.4051L15.5413 32.8053C17.0543 33.592 18.5539 34.6429 19.8291 36.0766C19.882 36.1427 19.9415 36.2088 20.001 36.2749L20.001 36.275L18.5132 38.6225L16.655 42.5042L15.9606 45.427L14.8034 47.563L12.9849 55.3858L13.4346 64.1676L14.691 72.3872L15.3787 74.9662L18.6454 79.9522L19.7498 81.4665C18.9628 81.9823 18.1164 82.2468 17.2105 82.2468C16.8335 82.2468 16.45 82.2005 16.0598 82.1079L15.8187 82.0515C15.4738 81.9709 15.1254 81.8895 14.777 81.8038L12.6675 78.9537L11.3846 76.3019L9.57273 68.1551L8.20389 61.4894V54.2484L10.0885 42.3587L12.5683 39.0788L14.7108 33.4051ZM30.715 92.4562C30.4505 92.6877 30.1877 92.9191 29.9248 93.1506C29.662 93.382 29.3991 93.6135 29.1346 93.8449C28.2551 94.6186 27.574 95.4915 27.0979 96.4503L33.9421 100.206L37.3608 101.43L39.2719 100.63L41.2756 101.906L52.504 102.713L62.7274 101.707L66.0469 100.187L67.6803 100.213L69.393 99.3004C69.512 99.1087 69.6377 98.9235 69.7699 98.7317C70.7949 97.2769 71.7471 95.7626 72.6729 94.288C72.8088 94.0749 72.9448 93.8577 73.0818 93.6388L73.0819 93.6387L73.0819 93.6386L73.0819 93.6386L73.082 93.6385L73.082 93.6384L73.0854 93.6331C73.1939 93.4598 73.3031 93.2853 73.4136 93.1109L69.1814 95.1344L66.8206 96.2784L59.6194 96.7413L53.6943 97.9647H47.2535L36.6797 95.6899L33.7635 93.4746L30.7084 92.4628L30.715 92.4562ZM41.8231 69.1882C41.2273 70.0218 40.0568 72.1086 40.0119 72.5342C40.1336 73.2919 40.4893 74.8915 40.9382 75.2278C41.3871 75.5641 42.5178 75.2867 43.0271 75.1059L43.3862 74.1641C43.6203 74.131 44.1418 74.0528 44.3545 74.0053C44.5792 73.9551 44.7195 72.3635 44.7744 71.7129L45.276 71.2583L45.809 71.5083L45.5958 73.0009L45.5979 73.0026C45.5941 73.0678 45.5962 73.1865 45.5989 73.3319C45.6058 73.7073 45.6159 74.2611 45.5343 74.5361C45.4381 74.8603 45.0698 75.0159 44.8513 75.1083L44.8512 75.1083L44.8511 75.1083L44.851 75.1084C44.7631 75.1455 44.6995 75.1724 44.6877 75.1959C44.5937 75.3844 44.1305 76.5154 44.2246 76.9867C44.3187 77.458 45.7298 79.1545 45.8239 79.2488C45.9013 79.3263 48.0166 79.2762 48.8687 79.2561H48.869L48.8698 79.256C49.0527 79.2517 49.1773 79.2488 49.2105 79.2488C49.3987 79.2488 50.4335 76.8924 50.4335 76.5154C50.4335 76.3576 50.516 76.1336 50.6049 75.892C50.7284 75.5566 50.8645 75.1871 50.8098 74.9131C50.7157 74.4419 50.1513 73.0281 50.0572 72.9338C50.0281 72.9047 49.9635 72.8418 49.8843 72.7648L49.8836 72.7642L49.8831 72.7636C49.7574 72.6413 49.5953 72.4837 49.4802 72.3683L48.7001 71.7999L49.3274 71.7215L50.82 72.5744L51.2465 73.534L51.6729 73.6406L51.9928 72.9171L53.1655 72.2546L53.6047 72.4742L53.5719 72.4665C52.0231 73.6501 52.0486 74.9032 52.0861 76.7432C52.0922 77.0427 52.0987 77.3578 52.0987 77.6907C52.0987 78.0709 52.3442 79.7164 52.5251 79.7164C52.5627 79.7164 53.9337 79.9759 53.9337 79.9759L54.4765 80.3561C54.4765 80.3561 56.0354 79.3309 56.1048 79.3105C56.7502 79.1204 57.5402 78.3599 57.6306 77.8846C57.7211 77.4094 57.2757 76.2687 57.1852 76.0786C57.0476 75.7893 56.9146 75.5897 56.7947 75.4096C56.5347 75.0194 56.3356 74.7204 56.2807 73.7973L55.2285 72.8716L55.8309 72.681L57.8949 73.1102C57.8863 73.3385 57.8955 73.6045 57.9447 73.8002C58.0021 74.0288 58.1954 75.2223 58.1954 75.2223L58.8106 76.3049L59.9495 76.7599C59.9495 76.7599 61.4456 76.9446 61.7977 76.59C62.1497 76.2355 62.2628 74.7847 62.2754 74.1037C62.1834 73.7377 60.9067 72.0738 60.2775 71.4157L60.9499 71.2583L61.1508 70.9472L65.3692 70.5325L69.2863 71.5693C69.3697 71.5693 70.4373 71.0818 70.5439 70.9472C70.5751 70.908 70.4453 70.6277 70.2564 70.2194C69.7981 69.2293 68.9914 67.4866 69.2863 66.6039C69.4788 66.0276 70.6776 65.1214 71.7422 64.3165L71.7423 64.3164C72.529 63.7217 73.2424 63.1824 73.4226 62.8724C73.7528 62.3042 74.3308 61.9618 74.8581 61.6495C75.6848 61.1598 76.387 60.7439 75.8148 59.6467C75.5804 58.8864 74.9309 57.2414 74.2078 56.7438C73.4846 56.2461 74.5091 53.0115 75.1117 51.4563L74.3821 49.652L72.6762 49.3322L71.8609 46.1337L69.2863 41.9182C63.0087 40.088 58.2712 38.3711 52.2114 35.7999C50.6943 35.7377 49.0332 36.0443 47.3017 36.5553C47.055 36.6281 46.9674 36.8224 46.8783 37.0201C46.7896 37.217 46.6993 37.4173 46.4487 37.5044C46.2411 37.5766 45.8794 37.5389 45.5139 37.5008C45.1332 37.4612 44.7484 37.4211 44.5297 37.5044C43.1244 38.0399 41.6994 38.6487 40.2904 39.2506L40.2901 39.2507C37.8228 40.3047 35.4047 41.3377 33.2286 41.9192C31.8085 43.4248 30.721 44.6866 29.8167 45.9771C29.7018 46.141 29.6742 46.5136 29.647 46.8815C29.6213 47.2298 29.5958 47.574 29.4968 47.7329C29.4062 47.8784 29.2384 47.8303 29.0716 47.7825C28.9028 47.7341 28.7351 47.686 28.6497 47.8396C28.0555 48.9085 27.5294 50.0717 27.0014 51.4563C27.604 53.0115 28.6285 56.2461 27.9054 56.7438C27.1822 57.2414 26.5327 58.8864 26.2983 59.6467C28.2067 61.5819 32.0032 65.7428 31.9229 66.9039C31.8775 67.5597 31.6484 68.2905 31.4275 68.9954C31.2572 69.5385 31.0918 70.0663 31.0189 70.5325L32.8268 71.5693L41.565 68.8737L41.7658 69.1848L41.8231 69.1882ZM42.1686 59.6588C43.2935 59.2441 44.5121 56.5831 44.9809 55.3045C44.0943 54.7816 42.7462 54.0278 41.3322 53.3112C41.2094 53.249 41.0335 53.0074 40.8571 52.7649L40.857 52.7649L40.857 52.7649C40.6779 52.5188 40.4982 52.2719 40.3727 52.2106C40.1869 52.12 40.0559 52.2175 39.9251 52.3148C39.7974 52.4098 39.6699 52.5046 39.4921 52.4239C38.1698 51.8236 36.9414 51.3603 36.1423 51.2613C34.9221 51.1102 33.9861 52.3285 33.3566 53.7033C33.2538 53.928 33.1365 54.0713 33.0258 54.2068L33.0257 54.2068C32.8957 54.3658 32.7747 54.5138 32.6963 54.7694C32.626 54.9989 32.6022 55.3614 32.5811 55.6838L32.5811 55.6839C32.5664 55.9067 32.5531 56.1104 32.5265 56.2377L34.5353 58.4147L37.6488 61.214C38.2248 61.0222 39.207 60.6921 40.1594 60.3653C40.9232 60.1033 41.6679 59.8434 42.1686 59.6588ZM70.0898 56.2377C69.7215 54.4753 68.4828 51.0125 66.474 51.2613C64.4653 51.5102 59.7447 54.0604 57.6355 55.3045C58.1042 56.5831 59.3228 59.2441 60.4477 59.6588C61.5726 60.0735 63.9296 60.8684 64.9675 61.214L68.081 58.4147L70.0898 56.2377ZM48.8957 58.8559C48.7481 59.4654 47.9978 60.8961 47.2707 62.2824C46.5138 63.7257 45.7821 65.1209 45.7821 65.4911L47.7909 67.4611C48.1257 67.2883 48.9761 66.839 49.6992 66.4243C50.4224 66.0096 50.0005 64.5927 49.6992 63.9361C50.2684 63.1758 51.4468 61.7382 51.6075 62.07C51.6932 62.2468 51.8336 62.8948 51.9821 63.5801C52.1819 64.5019 52.3963 65.4911 52.5115 65.4911C52.6436 65.4911 53.3403 65.9843 53.8591 66.3516L53.8592 66.3516L53.8595 66.3519C54.1294 66.543 54.3511 66.6999 54.4198 66.7353C54.6207 66.839 55.6251 66.217 56.0268 65.9059C56.4286 65.5949 52.1097 56.0566 51.4067 55.5382C50.803 55.0931 49.9771 55.7946 49.5014 56.1987C49.4231 56.2652 49.3542 56.3237 49.2975 56.3676C49.0775 56.5379 49.0683 56.8946 49.0556 57.3866V57.3867C49.045 57.7935 49.0321 58.2928 48.8957 58.8559Z" fill="url(#paint0_linear_309_5405)"/><defs><linearGradient id="paint0_linear_309_5405" x1="49.8426" y1="0.710815" x2="49.8426" y2="111.045" gradientUnits="userSpaceOnUse"><stop stop-color="#E1BF60"/><stop offset="1" stop-color="#B93C34"/></linearGradient></defs></svg>